<?xml version="1.0" encoding="UTF-8"?>
<svg xmlns="http://www.w3.org/2000/svg" xmlns:xlink="http://www.w3.org/1999/xlink" width="30pt" height="30pt" viewBox="0 0 30 30" version="1.1">
<g id="surface1">
<path style=" stroke:none;fill-rule:nonzero;fill:rgb(0%,0%,0%);fill-opacity:1;" d="M 14.882812 1.984375 C 13.929688 1.984375 12.980469 2.347656 12.257812 3.070312 L 9.851562 5.472656 L 14.882812 10.503906 L 19.90625 5.472656 L 17.507812 3.070312 C 16.78125 2.347656 15.832031 1.984375 14.882812 1.984375 Z M 8.449219 6.875 L 3.070312 12.257812 C 1.621094 13.703125 1.621094 16.054688 3.070312 17.503906 L 5.472656 19.90625 L 13.480469 11.90625 Z M 21.308594 6.878906 L 16.28125 11.90625 L 20.335938 15.957031 L 25.363281 10.929688 Z M 26.761719 12.34375 L 21.738281 17.363281 L 24.289062 19.90625 L 26.691406 17.507812 C 28.113281 16.082031 28.132812 13.796875 26.761719 12.34375 Z M 14.882812 13.308594 L 6.875 21.3125 L 12.257812 26.691406 C 13.703125 28.140625 16.054688 28.140625 17.503906 26.691406 L 22.882812 21.3125 Z M 14.882812 13.308594 "/>
</g>
</svg>
